mtllib SM_StraightRoad.mtl
g SM_StraightRoad
#Vertices 28
#Indices 42
#Section 0 Offset 0 NumIndices 24 MaterialIndex 1 MI_Curb
#Section 1 Offset 24 NumIndices 12 MaterialIndex 2 MI_Sidewalk
#Section 2 Offset 36 NumIndices 6 MaterialIndex 0 MI_Road
v 11.500000 0.000000 0.000000
v 11.700000 15.000000 0.000000
v 11.700000 0.000000 0.000000
v 11.500000 15.000000 0.000000
v 11.500000 15.000000 0.000000
v 11.500000 0.000000 0.000000
v 11.500000 -0.000000 -0.200000
v 11.500000 15.000000 -0.200000
v 3.300000 0.000000 0.000000
v 3.300000 15.000000 0.000000
v 3.500000 0.000000 0.000000
v 3.500000 15.000000 0.000000
v 3.500000 15.000000 0.000000
v 3.500000 -0.000000 -0.200000
v 3.500000 0.000000 0.000000
v 3.500000 15.000000 -0.200000
v 11.700000 0.000000 0.000000
v 15.000000 15.000000 0.000000
v 15.000000 0.000000 0.000000
v 11.700000 15.000000 0.000000
v 0.000000 0.000000 0.000000
v 0.000000 15.000000 0.000000
v 3.300000 0.000000 0.000000
v 3.300000 15.000000 0.000000
v 11.500000 15.000000 -0.200000
v 11.500000 -0.000000 -0.200000
v 3.500000 -0.000000 -0.200000
v 3.500000 15.000000 -0.200000
vt 0.997559 0.502686
vt 0.000500 0.489746
vt 0.997559 0.489746
vt 0.000500 0.502686
vt 0.000500 0.504395
vt 0.997559 0.504395
vt 0.997559 0.517578
vt 0.000500 0.517578
vt 0.000500 0.489746
vt 0.997559 0.489746
vt 0.000500 0.502686
vt 0.997559 0.502686
vt 0.997559 0.504395
vt 0.000500 0.517578
vt 0.000500 0.504395
vt 0.997559 0.517578
vt 0.388428 1.034210
vt 0.608398 0.035645
vt 0.608398 1.034210
vt 0.388428 0.035645
vt 0.608398 1.034210
vt 0.608398 0.035645
vt 0.388428 1.034210
vt 0.388428 0.035645
vt 0.766113 0.000977
vt 0.766113 0.999500
vt 0.233521 0.999500
vt 0.233521 0.000977
vt1 0.945312 0.007812
vt1 0.957031 0.913086
vt1 0.957031 0.007812
vt1 0.945312 0.913086
vt1 0.007812 0.972656
vt1 0.913086 0.972656
vt1 0.913086 0.960938
vt1 0.007812 0.960938
vt1 0.007812 0.941406
vt1 0.913086 0.941406
vt1 0.007812 0.929688
vt1 0.913086 0.929688
vt1 0.988281 0.007812
vt1 0.976562 0.913086
vt1 0.988281 0.913086
vt1 0.976562 0.007812
vt1 0.507812 0.007812
vt1 0.707031 0.913086
vt1 0.707031 0.007812
vt1 0.507812 0.913086
vt1 0.925781 0.007809
vt1 0.925781 0.913086
vt1 0.726562 0.007809
vt1 0.726562 0.913086
vt1 0.490723 0.913086
vt1 0.490723 0.007812
vt1 0.007812 0.007812
vt1 0.007812 0.913086
vn 0.000000 0.000000 1.000000
vn 0.000000 0.000000 1.000000
vn 0.000000 0.000000 1.000000
vn 0.000000 0.000000 1.000000
vn -1.000000 0.000000 0.000000
vn -1.000000 0.000000 0.000000
vn -1.000000 0.000000 0.000000
vn -1.000000 0.000000 0.000000
vn 0.000000 0.000000 1.000000
vn 0.000000 0.000000 1.000000
vn 0.000000 0.000000 1.000000
vn 0.000000 0.000000 1.000000
vn 1.000000 0.000000 0.000000
vn 1.000000 0.000000 0.000000
vn 1.000000 0.000000 0.000000
vn 1.000000 0.000000 0.000000
vn 0.000000 0.000000 1.000000
vn 0.000000 0.000000 1.000000
vn 0.000000 0.000000 1.000000
vn 0.000000 0.000000 1.000000
vn 0.000000 0.000000 1.000000
vn 0.000000 0.000000 1.000000
vn 0.000000 0.000000 1.000000
vn 0.000000 0.000000 1.000000
vn 0.000000 0.000000 1.000000
vn 0.000000 0.000000 1.000000
vn 0.000000 0.000000 1.000000
vn 0.000000 0.000000 1.000000
tan 0.000000 -1.000000 0.000000 1.000000
tan 0.000000 -1.000000 0.000000 1.000000
tan 0.000000 -1.000000 0.000000 1.000000
tan 0.000000 -1.000000 0.000000 1.000000
tan 0.000000 -1.000000 0.000000 1.000000
tan 0.000000 -1.000000 0.000000 1.000000
tan 0.000000 -1.000000 0.000000 1.000000
tan 0.000000 -1.000000 0.000000 1.000000
tan 0.000000 1.000000 0.000000 1.000000
tan 0.000000 1.000000 0.000000 1.000000
tan 0.000000 1.000000 0.000000 1.000000
tan 0.000000 1.000000 0.000000 1.000000
tan 0.000000 1.000000 0.000000 1.000000
tan 0.000000 1.000000 0.000000 1.000000
tan 0.000000 1.000000 0.000000 1.000000
tan 0.000000 1.000000 0.000000 1.000000
tan 1.000000 0.000000 0.000000 1.000000
tan 1.000000 0.000000 0.000000 1.000000
tan 1.000000 0.000000 0.000000 1.000000
tan 1.000000 0.000000 0.000000 1.000000
tan -1.000000 0.000000 0.000000 1.000000
tan -1.000000 0.000000 0.000000 1.000000
tan -1.000000 0.000000 0.000000 1.000000
tan -1.000000 0.000000 0.000000 1.000000
tan 1.000000 0.000000 0.000000 1.000000
tan 1.000000 0.000000 0.000000 1.000000
tan 1.000000 0.000000 0.000000 1.000000
tan 1.000000 0.000000 0.000000 1.000000
f 3/3/3 2/2/2 1/1/1
f 4/4/4 1/1/1 2/2/2
f 7/7/7 6/6/6 5/5/5
f 8/8/8 7/7/7 5/5/5
f 11/11/11 10/10/10 9/9/9
f 12/12/12 10/10/10 11/11/11
f 15/15/15 14/14/14 13/13/13
f 16/16/16 13/13/13 14/14/14
f 19/19/19 18/18/18 17/17/17
f 20/20/20 17/17/17 18/18/18
f 23/23/23 22/22/22 21/21/21
f 24/24/24 22/22/22 23/23/23
f 27/27/27 26/26/26 25/25/25
f 25/25/25 28/28/28 27/27/27
