mtllib SM_SPPowerCable01_Mesh01.mtl
g SM_SPPowerCable01_Mesh01
#Vertices 120
#Indices 360
#Section 0 Offset 0 NumIndices 360 MaterialIndex 0 M_SPPowerCable_Mat01
v -0.012313 1.358012 -0.295095
v 0.005333 -0.006226 0.038663
v -0.013964 -0.006226 0.032488
v 0.006987 1.359455 -0.288997
v -0.012313 2.642871 -0.563594
v 0.006986 2.644151 -0.557459
v -0.012313 3.872197 -0.771000
v 0.006986 3.873240 -0.764820
v -0.012313 5.066766 -0.915121
v 0.006986 5.067517 -0.908900
v -0.012313 6.247377 -0.993769
v 0.006986 6.247794 -0.987518
v -0.012313 7.434845 -1.004753
v 0.006986 7.434903 -0.998489
v 0.006986 8.649685 -0.939621
v -0.012313 8.649987 -0.945878
v 0.006986 9.912979 -0.808708
v -0.012313 9.913624 -0.814938
v 0.006986 11.245614 -0.603532
v -0.012313 11.246566 -0.609723
v 0.006986 12.668396 -0.321877
v -0.012313 12.669610 -0.328022
v 0.006986 14.205748 0.038475
v -0.012313 14.205748 0.032378
v -0.012313 12.669610 -0.328022
v -0.012318 14.205748 0.012624
v -0.012313 14.205748 0.032378
v -0.012318 12.673551 -0.347926
v -0.012313 11.246566 -0.609723
v -0.012318 11.249652 -0.629778
v -0.012313 9.913624 -0.814938
v -0.012318 9.915712 -0.835120
v -0.012313 8.649987 -0.945878
v -0.012318 8.650968 -0.966144
v -0.012313 7.434845 -1.004753
v -0.012318 7.434655 -1.025043
v -0.012313 6.247377 -0.993769
v -0.012318 6.246027 -1.014013
v -0.012313 5.066766 -0.915121
v -0.012318 5.064334 -0.935264
v -0.012313 3.872197 -0.771000
v -0.012318 3.868821 -0.791007
v -0.012313 2.642871 -0.563594
v -0.012318 2.638720 -0.583454
v -0.012313 1.358012 -0.295095
v -0.012318 1.353267 -0.314822
v -0.013964 -0.006226 0.012506
v -0.013964 -0.006226 0.032488
v 0.006978 1.351778 -0.320918
v -0.013964 -0.006226 0.012506
v 0.005333 -0.006226 0.006330
v -0.012318 1.353267 -0.314822
v 0.006978 2.637436 -0.589596
v -0.012318 2.638720 -0.583454
v 0.006978 3.867778 -0.797195
v -0.012318 3.868821 -0.791007
v 0.006978 5.063582 -0.941495
v -0.012318 5.064334 -0.935264
v 0.006978 6.245611 -1.020277
v -0.012318 6.246027 -1.014013
v 0.006978 7.434597 -1.031319
v -0.012318 7.434655 -1.025043
v -0.012318 8.650968 -0.966144
v 0.006978 8.651273 -0.972412
v -0.012318 9.915712 -0.835120
v 0.006978 9.916361 -0.841363
v -0.012318 11.249652 -0.629778
v 0.006978 11.250606 -0.635980
v -0.012318 12.673551 -0.347926
v 0.006978 12.674771 -0.354083
v -0.012318 14.205748 0.012624
v 0.006978 14.205748 0.006515
v 0.018909 14.205748 0.022494
v 0.006986 12.668396 -0.321877
v 0.006986 14.205748 0.038475
v 0.018909 12.671583 -0.337982
v 0.006978 14.205748 0.006515
v 0.006986 11.245614 -0.603532
v 0.006978 12.674771 -0.354083
v 0.018909 11.248112 -0.619758
v 0.006986 9.912979 -0.808708
v 0.006978 11.250606 -0.635980
v 0.018909 9.914669 -0.825038
v 0.006986 8.649685 -0.939621
v 0.006978 9.916361 -0.841363
v 0.018909 8.650478 -0.956019
v 0.006986 7.434903 -0.998489
v 0.006978 8.651273 -0.972412
v 0.018909 7.434749 -1.014906
v 0.006986 6.247794 -0.987518
v 0.006978 7.434597 -1.031319
v 0.018909 6.246701 -1.003899
v 0.006986 5.067517 -0.908900
v 0.006978 6.245611 -1.020277
v 0.018909 5.065548 -0.925200
v 0.006986 3.873240 -0.764820
v 0.006978 5.063582 -0.941495
v 0.018909 3.870508 -0.781010
v 0.006986 2.644151 -0.557459
v 0.006978 3.867778 -0.797195
v 0.018909 2.640793 -0.573530
v 0.006987 1.359455 -0.288997
v 0.006978 2.637436 -0.589596
v 0.017260 -0.006226 0.022496
v 0.005333 -0.006226 0.038663
v 0.018909 1.355602 -0.304957
v 0.006978 1.351778 -0.320918
v 0.005333 -0.006226 0.006330
v -0.012313 14.205748 0.032378
v 0.001649 14.205748 0.022497
v 0.006986 14.205748 0.038475
v -0.012318 14.205748 0.012624
v 0.018909 14.205748 0.022494
v 0.006978 14.205748 0.006515
v -0.013964 -0.006226 0.032488
v 0.005333 -0.006226 0.038663
v -0.000000 -0.006226 0.022496
v -0.013964 -0.006226 0.012506
v 0.017260 -0.006226 0.022496
v 0.005333 -0.006226 0.006330
vt 0.974609 0.062500
vt 0.973633 0.000000
vt 0.974609 0.000000
vt 0.973633 0.062500
vt 0.974609 0.121094
vt 0.973633 0.121582
vt 0.974609 0.178223
vt 0.973633 0.178223
vt 0.974609 0.233887
vt 0.973633 0.233887
vt 0.974609 0.289062
vt 0.973633 0.289062
vt 0.974609 0.345703
vt 0.973633 0.345703
vt 0.973633 0.403809
vt 0.974609 0.403809
vt 0.973633 0.465332
vt 0.974609 0.465332
vt 0.973633 0.530029
vt 0.974609 0.530029
vt 0.973633 0.600098
vt 0.974609 0.600098
vt 0.973633 0.676270
vt 0.974609 0.676270
vt 0.782227 0.600098
vt 0.778809 0.676270
vt 0.777832 0.676270
vt 0.783203 0.600098
vt 0.783691 0.530029
vt 0.784668 0.530029
vt 0.782227 0.465332
vt 0.783203 0.464844
vt 0.777832 0.403809
vt 0.778809 0.403809
vt 0.770508 0.345703
vt 0.771484 0.345215
vt 0.760254 0.289062
vt 0.760742 0.289062
vt 0.746582 0.233887
vt 0.747070 0.233398
vt 0.729492 0.178223
vt 0.730469 0.177734
vt 0.709473 0.121094
vt 0.710449 0.121094
vt 0.685547 0.062500
vt 0.686523 0.062012
vt 0.659668 0.000000
vt 0.658691 0.000000
vt 0.978027 0.062012
vt 0.977051 0.000000
vt 0.978027 0.000000
vt 0.977539 0.062012
vt 0.978027 0.121094
vt 0.977539 0.121094
vt 0.978027 0.177734
vt 0.977539 0.177734
vt 0.978027 0.233398
vt 0.977539 0.233398
vt 0.978027 0.289062
vt 0.977539 0.289062
vt 0.978027 0.345215
vt 0.977539 0.345215
vt 0.977539 0.403809
vt 0.978027 0.403809
vt 0.977539 0.464844
vt 0.978027 0.464844
vt 0.977539 0.530029
vt 0.978027 0.530029
vt 0.977539 0.600098
vt 0.978027 0.600098
vt 0.977539 0.676270
vt 0.978027 0.676270
vt 0.047607 0.260742
vt 0.123657 0.257324
vt 0.047668 0.261719
vt 0.123596 0.256348
vt 0.047577 0.259766
vt 0.193604 0.255859
vt 0.123596 0.255859
vt 0.193726 0.254883
vt 0.258789 0.257324
vt 0.193726 0.254395
vt 0.258789 0.256348
vt 0.319824 0.261719
vt 0.258789 0.255859
vt 0.320068 0.260742
vt 0.378174 0.269043
vt 0.320068 0.260254
vt 0.378418 0.268066
vt 0.434570 0.279297
vt 0.378418 0.267578
vt 0.434814 0.278809
vt 0.489990 0.292969
vt 0.435059 0.277832
vt 0.490234 0.292480
vt 0.545410 0.310059
vt 0.490479 0.291504
vt 0.545898 0.309082
vt 0.602051 0.330078
vt 0.545898 0.308594
vt 0.602539 0.329590
vt 0.661133 0.353516
vt 0.603027 0.328613
vt 0.723633 0.379883
vt 0.723633 0.380859
vt 0.661621 0.353027
vt 0.661621 0.352051
vt 0.723633 0.379395
vt 0.034210 0.010254
vt 0.033722 0.009766
vt 0.034515 0.009277
vt 0.033234 0.010254
vt 0.033722 0.008789
vt 0.032928 0.009277
vt 0.022263 0.009766
vt 0.021957 0.008789
vt 0.022751 0.008789
vt 0.023239 0.009766
vt 0.022751 0.008301
vt 0.023544 0.008789
vt1 0.906250 0.978516
vt1 0.998047 0.979492
vt1 0.998047 0.978516
vt1 0.905762 0.979980
vt1 0.819336 0.978516
vt1 0.819336 0.979980
vt1 0.735840 0.978516
vt1 0.735840 0.979980
vt1 0.653809 0.978516
vt1 0.653809 0.979980
vt1 0.572266 0.978516
vt1 0.571777 0.979980
vt1 0.489014 0.978516
vt1 0.489014 0.979980
vt1 0.403076 0.979980
vt1 0.403076 0.978516
vt1 0.312988 0.979980
vt1 0.312988 0.978516
vt1 0.217041 0.979980
vt1 0.217041 0.978516
vt1 0.113892 0.979980
vt1 0.113892 0.978516
vt1 0.001978 0.979980
vt1 0.001953 0.978516
vt1 0.885742 0.968750
vt1 0.998047 0.963867
vt1 0.997559 0.962402
vt1 0.885742 0.970215
vt1 0.782715 0.971191
vt1 0.782715 0.972168
vt1 0.686523 0.968750
vt1 0.686523 0.970215
vt1 0.596191 0.962402
vt1 0.596191 0.963867
vt1 0.510742 0.951660
vt1 0.510254 0.953125
vt1 0.427490 0.936035
vt1 0.427246 0.937500
vt1 0.345703 0.916016
vt1 0.345459 0.917480
vt1 0.263916 0.891113
vt1 0.263428 0.892578
vt1 0.180298 0.861328
vt1 0.179810 0.862793
vt1 0.093567 0.826660
vt1 0.093018 0.828125
vt1 0.001953 0.788086
vt1 0.001953 0.787109
vt1 0.906738 0.985840
vt1 0.998047 0.987793
vt1 0.998047 0.986328
vt1 0.906738 0.987305
vt1 0.820312 0.985840
vt1 0.819824 0.987305
vt1 0.736328 0.985840
vt1 0.736328 0.987305
vt1 0.654297 0.985840
vt1 0.654297 0.987305
vt1 0.572754 0.985840
vt1 0.572266 0.987305
vt1 0.489502 0.985840
vt1 0.489502 0.987305
vt1 0.403320 0.987305
vt1 0.403564 0.985840
vt1 0.313232 0.987305
vt1 0.313232 0.985840
vt1 0.217163 0.987305
vt1 0.217163 0.985840
vt1 0.113953 0.987305
vt1 0.113953 0.985840
vt1 0.001978 0.987305
vt1 0.001953 0.985840
vt1 0.997559 0.948242
vt1 0.885742 0.953125
vt1 0.997559 0.946777
vt1 0.885742 0.954102
vt1 0.998047 0.949219
vt1 0.782715 0.955566
vt1 0.885742 0.955566
vt1 0.782715 0.956543
vt1 0.686523 0.953125
vt1 0.782715 0.957520
vt1 0.686523 0.954590
vt1 0.596680 0.946777
vt1 0.686523 0.955566
vt1 0.596191 0.947754
vt1 0.510742 0.936035
vt1 0.596191 0.949219
vt1 0.510254 0.937012
vt1 0.427734 0.920410
vt1 0.510254 0.937988
vt1 0.427246 0.921387
vt1 0.345947 0.900391
vt1 0.427002 0.922852
vt1 0.345459 0.901367
vt1 0.263916 0.875488
vt1 0.345215 0.902832
vt1 0.263672 0.876465
vt1 0.180420 0.845703
vt1 0.263184 0.877930
vt1 0.180054 0.846680
vt1 0.093750 0.811035
vt1 0.179565 0.848145
vt1 0.001953 0.772461
vt1 0.001953 0.771484
vt1 0.093262 0.812012
vt1 0.092834 0.813477
vt1 0.001953 0.773438
vt1 0.877930 0.925781
vt1 0.689453 0.659180
vt1 0.994629 0.557617
vt1 0.500977 0.925781
vt1 0.689453 0.330078
vt1 0.384766 0.557617
vt1 0.119751 0.001953
vt1 0.001953 0.370117
vt1 0.310303 0.268311
vt1 0.500977 0.001953
vt1 0.310303 0.597656
vt1 0.618652 0.370117
vn -0.811024 0.125984 0.574803
vn 0.275591 0.220472 0.937008
vn -0.755906 0.157480 0.637795
vn 0.307087 0.204724 0.929134
vn -0.811024 0.110236 0.574803
vn 0.314961 0.173228 0.937008
vn -0.811024 0.086614 0.574803
vn 0.314961 0.133858 0.937008
vn -0.811024 0.055118 0.582677
vn 0.314961 0.086614 0.944882
vn -0.811024 0.023622 0.582677
vn 0.314961 0.039370 0.952756
vn -0.811024 -0.007874 0.582677
vn 0.314961 -0.015748 0.952756
vn 0.314961 -0.070866 0.944882
vn -0.811024 -0.047244 0.582677
vn 0.314961 -0.125984 0.944882
vn -0.811024 -0.070866 0.574803
vn 0.314961 -0.165354 0.937008
vn -0.811024 -0.102362 0.574803
vn 0.307087 -0.204724 0.929134
vn -0.811024 -0.125984 0.574803
vn 0.275591 -0.220472 0.937008
vn -0.755906 -0.149606 0.637795
vn -0.811024 -0.125984 0.574803
vn -0.842520 0.125984 -0.527559
vn -0.755906 -0.149606 0.637795
vn -0.803150 0.125984 -0.582677
vn -0.811024 -0.102362 0.574803
vn -0.803150 0.102362 -0.582677
vn -0.811024 -0.070866 0.574803
vn -0.803150 0.078740 -0.590551
vn -0.811024 -0.047244 0.582677
vn -0.803150 0.047244 -0.590551
vn -0.811024 -0.007874 0.582677
vn -0.803150 0.015748 -0.598425
vn -0.811024 0.023622 0.582677
vn -0.803150 -0.023622 -0.598425
vn -0.811024 0.055118 0.582677
vn -0.803150 -0.055118 -0.590551
vn -0.811024 0.086614 0.574803
vn -0.803150 -0.086614 -0.590551
vn -0.811024 0.110236 0.574803
vn -0.803150 -0.110236 -0.582677
vn -0.811024 0.125984 0.574803
vn -0.803150 -0.133858 -0.582677
vn -0.842520 -0.125984 -0.527559
vn -0.755906 0.157480 0.637795
vn 0.307087 -0.212598 -0.929134
vn -0.842520 -0.125984 -0.527559
vn 0.322835 -0.220472 -0.921260
vn -0.803150 -0.133858 -0.582677
vn 0.307087 -0.173228 -0.937008
vn -0.803150 -0.110236 -0.582677
vn 0.307087 -0.133858 -0.944882
vn -0.803150 -0.086614 -0.590551
vn 0.307087 -0.086614 -0.944882
vn -0.803150 -0.055118 -0.590551
vn 0.307087 -0.039370 -0.952756
vn -0.803150 -0.023622 -0.598425
vn 0.307087 0.015748 -0.952756
vn -0.803150 0.015748 -0.598425
vn -0.803150 0.047244 -0.590551
vn 0.307087 0.070866 -0.952756
vn -0.803150 0.078740 -0.590551
vn 0.307087 0.118110 -0.944882
vn -0.803150 0.102362 -0.582677
vn 0.307087 0.165354 -0.937008
vn -0.803150 0.125984 -0.582677
vn 0.299213 0.204724 -0.929134
vn -0.842520 0.125984 -0.527559
vn 0.322835 0.220472 -0.921260
vn 1.000000 -0.023622 0.086614
vn 0.307087 -0.204724 0.929134
vn 0.275591 -0.220472 0.937008
vn 1.000000 0.000000 -0.007874
vn 0.322835 0.220472 -0.921260
vn 0.314961 -0.165354 0.937008
vn 0.299213 0.204724 -0.929134
vn 1.000000 0.000000 -0.007874
vn 0.314961 -0.125984 0.944882
vn 0.307087 0.165354 -0.937008
vn 1.000000 0.000000 -0.007874
vn 0.314961 -0.070866 0.944882
vn 0.307087 0.118110 -0.944882
vn 1.000000 0.000000 -0.007874
vn 0.314961 -0.015748 0.952756
vn 0.307087 0.070866 -0.952756
vn 1.000000 0.000000 -0.007874
vn 0.314961 0.039370 0.952756
vn 0.307087 0.015748 -0.952756
vn 1.000000 0.000000 -0.007874
vn 0.314961 0.086614 0.944882
vn 0.307087 -0.039370 -0.952756
vn 1.000000 0.000000 -0.007874
vn 0.314961 0.133858 0.937008
vn 0.307087 -0.086614 -0.944882
vn 1.000000 0.000000 -0.007874
vn 0.314961 0.173228 0.937008
vn 0.307087 -0.133858 -0.944882
vn 1.000000 0.000000 -0.007874
vn 0.307087 0.204724 0.929134
vn 0.307087 -0.173228 -0.937008
vn 0.992126 0.015748 0.086614
vn 0.275591 0.220472 0.937008
vn 1.000000 0.000000 -0.007874
vn 0.307087 -0.212598 -0.929134
vn 0.322835 -0.220472 -0.921260
vn 0.000000 1.000000 0.000000
vn 0.000000 1.000000 0.000000
vn 0.000000 1.000000 0.000000
vn 0.000000 1.000000 0.000000
vn 0.000000 1.000000 0.000000
vn 0.000000 1.000000 0.000000
vn 0.000000 -1.000000 0.000000
vn 0.000000 -1.000000 0.000000
vn 0.000000 -1.000000 0.000000
vn 0.000000 -1.000000 0.000000
vn 0.000000 -1.000000 0.000000
vn 0.000000 -1.000000 0.000000
tan -0.582677 -0.023622 -0.811024 1.000000
tan -0.960630 0.149606 0.244094 1.000000
tan -0.653543 -0.094488 -0.748031 1.000000
tan -0.937008 0.220472 0.259843 1.000000
tan -0.574803 -0.007874 -0.818898 1.000000
tan -0.937008 0.196850 0.275591 1.000000
tan -0.574803 0.007874 -0.818898 1.000000
tan -0.944882 0.165354 0.291339 1.000000
tan -0.574803 0.031496 -0.818898 1.000000
tan -0.944882 0.133858 0.299213 1.000000
tan -0.582677 0.055118 -0.811024 1.000000
tan -0.944882 0.094488 0.307087 1.000000
tan -0.582677 0.078740 -0.811024 1.000000
tan -0.944882 0.055118 0.314961 1.000000
tan -0.952756 0.015748 0.314961 1.000000
tan -0.582677 0.102362 -0.811024 1.000000
tan -0.952756 -0.023622 0.314961 1.000000
tan -0.582677 0.118110 -0.803150 1.000000
tan -0.952756 -0.055118 0.307087 1.000000
tan -0.582677 0.141732 -0.803150 1.000000
tan -0.952756 -0.078740 0.299213 1.000000
tan -0.590551 0.157480 -0.795276 1.000000
tan -0.952756 -0.165354 0.244094 1.000000
tan -0.653543 0.070866 -0.755906 1.000000
tan -0.590551 0.125984 -0.795276 1.000000
tan 0.511811 -0.141732 -0.850394 1.000000
tan -0.614173 -0.188976 -0.771654 1.000000
tan 0.598425 0.125984 -0.795276 1.000000
tan -0.582677 0.141732 -0.803150 1.000000
tan 0.590551 0.141732 -0.795276 1.000000
tan -0.582677 0.157480 -0.795276 1.000000
tan 0.590551 0.157480 -0.787402 1.000000
tan -0.574803 0.181102 -0.795276 1.000000
tan 0.590551 0.181102 -0.787402 1.000000
tan -0.566929 0.204724 -0.795276 1.000000
tan 0.582677 0.204724 -0.787402 1.000000
tan -0.559055 0.228346 -0.795276 1.000000
tan 0.574803 0.228346 -0.787402 1.000000
tan -0.551181 0.244094 -0.795276 1.000000
tan 0.559055 0.251969 -0.787402 1.000000
tan -0.543307 0.267717 -0.803150 1.000000
tan 0.551181 0.267717 -0.795276 1.000000
tan -0.527559 0.275591 -0.803150 1.000000
tan 0.535433 0.283465 -0.795276 1.000000
tan -0.519685 0.291339 -0.803150 1.000000
tan 0.527559 0.291339 -0.795276 1.000000
tan 0.519685 0.078740 -0.850394 1.000000
tan -0.622047 0.125984 -0.771654 1.000000
tan 0.937008 0.220472 0.259843 1.000000
tan 0.535433 -0.102362 -0.834646 1.000000
tan 0.944882 0.165354 0.291339 1.000000
tan 0.590551 -0.023622 -0.811024 1.000000
tan 0.944882 0.196850 0.267717 1.000000
tan 0.582677 -0.007874 -0.811024 1.000000
tan 0.944882 0.165354 0.283465 1.000000
tan 0.590551 0.007874 -0.811024 1.000000
tan 0.944882 0.133858 0.291339 1.000000
tan 0.590551 0.031496 -0.803150 1.000000
tan 0.952756 0.094488 0.299213 1.000000
tan 0.590551 0.055118 -0.803150 1.000000
tan 0.952756 0.055118 0.307087 1.000000
tan 0.590551 0.078740 -0.803150 1.000000
tan 0.590551 0.102362 -0.795276 1.000000
tan 0.952756 0.015748 0.307087 1.000000
tan 0.590551 0.118110 -0.795276 1.000000
tan 0.952756 -0.023622 0.307087 1.000000
tan 0.590551 0.141732 -0.795276 1.000000
tan 0.952756 -0.055118 0.299213 1.000000
tan 0.598425 0.157480 -0.787402 1.000000
tan 0.952756 -0.078740 0.291339 1.000000
tan 0.535433 0.078740 -0.834646 1.000000
tan 0.937008 -0.181102 0.291339 1.000000
tan -0.007874 -0.984252 -0.173228 1.000000
tan -0.039370 -0.976378 -0.196850 1.000000
tan -0.055118 -0.976378 -0.212598 1.000000
tan 0.000000 -0.984252 -0.173228 1.000000
tan 0.055118 -0.976378 -0.212598 1.000000
tan 0.000000 -0.984252 -0.173228 1.000000
tan 0.039370 -0.976378 -0.196850 1.000000
tan 0.000000 -0.984252 -0.173228 1.000000
tan 0.047244 -0.992126 -0.141732 1.000000
tan 0.000000 -0.984252 -0.173228 1.000000
tan 0.000000 -0.984252 -0.173228 1.000000
tan 0.094488 -0.992126 -0.110236 1.000000
tan -0.047244 -0.992126 -0.141732 1.000000
tan 0.000000 -0.984252 -0.173228 1.000000
tan 0.149606 -0.984252 -0.070866 1.000000
tan -0.094488 -0.992126 -0.102362 1.000000
tan 0.000000 -0.984252 -0.173228 1.000000
tan 0.196850 -0.976378 -0.031496 1.000000
tan -0.149606 -0.984252 -0.062992 1.000000
tan 0.000000 -0.984252 -0.173228 1.000000
tan 0.251969 -0.968504 0.007874 1.000000
tan -0.196850 -0.976378 -0.023622 1.000000
tan 0.000000 -0.984252 -0.173228 1.000000
tan 0.299213 -0.952756 0.039370 1.000000
tan -0.251969 -0.968504 0.007874 1.000000
tan 0.000000 -0.984252 -0.173228 1.000000
tan 0.338583 -0.937008 0.062992 1.000000
tan -0.299213 -0.952756 0.039370 1.000000
tan 0.000000 -0.984252 -0.173228 1.000000
tan 0.362205 -0.929134 0.086614 1.000000
tan -0.338583 -0.937008 0.070866 1.000000
tan 0.031496 -0.984252 -0.165354 1.000000
tan 0.370079 -0.921260 0.110236 1.000000
tan 0.000000 -0.984252 -0.173228 1.000000
tan -0.370079 -0.929134 0.086614 1.000000
tan -0.377953 -0.921260 0.086614 1.000000
tan 0.000000 0.000000 1.000000 1.000000
tan 0.000000 0.000000 1.000000 1.000000
tan 0.000000 0.000000 1.000000 1.000000
tan 0.000000 0.000000 1.000000 1.000000
tan 0.000000 0.000000 1.000000 1.000000
tan 0.000000 0.000000 1.000000 1.000000
tan 0.000000 0.000000 -1.000000 1.000000
tan 0.000000 0.000000 -1.000000 1.000000
tan 0.000000 0.000000 -1.000000 1.000000
tan 0.000000 0.000000 -1.000000 1.000000
tan 0.000000 0.000000 -1.000000 1.000000
tan 0.000000 0.000000 -1.000000 1.000000
f 3/3/3 2/2/2 1/1/1
f 4/4/4 1/1/1 2/2/2
f 1/1/1 4/4/4 5/5/5
f 6/6/6 5/5/5 4/4/4
f 5/5/5 6/6/6 7/7/7
f 8/8/8 7/7/7 6/6/6
f 7/7/7 8/8/8 9/9/9
f 10/10/10 9/9/9 8/8/8
f 9/9/9 10/10/10 11/11/11
f 12/12/12 11/11/11 10/10/10
f 11/11/11 12/12/12 13/13/13
f 14/14/14 13/13/13 12/12/12
f 14/14/14 15/15/15 13/13/13
f 16/16/16 13/13/13 15/15/15
f 15/15/15 17/17/17 16/16/16
f 18/18/18 16/16/16 17/17/17
f 17/17/17 19/19/19 18/18/18
f 20/20/20 18/18/18 19/19/19
f 19/19/19 21/21/21 20/20/20
f 22/22/22 20/20/20 21/21/21
f 21/21/21 23/23/23 22/22/22
f 24/24/24 22/22/22 23/23/23
f 27/27/27 26/26/26 25/25/25
f 28/28/28 25/25/25 26/26/26
f 25/25/25 28/28/28 29/29/29
f 30/30/30 29/29/29 28/28/28
f 29/29/29 30/30/30 31/31/31
f 32/32/32 31/31/31 30/30/30
f 31/31/31 32/32/32 33/33/33
f 34/34/34 33/33/33 32/32/32
f 33/33/33 34/34/34 35/35/35
f 36/36/36 35/35/35 34/34/34
f 35/35/35 36/36/36 37/37/37
f 38/38/38 37/37/37 36/36/36
f 37/37/37 38/38/38 39/39/39
f 40/40/40 39/39/39 38/38/38
f 39/39/39 40/40/40 41/41/41
f 42/42/42 41/41/41 40/40/40
f 41/41/41 42/42/42 43/43/43
f 44/44/44 43/43/43 42/42/42
f 43/43/43 44/44/44 45/45/45
f 46/46/46 45/45/45 44/44/44
f 46/46/46 47/47/47 45/45/45
f 48/48/48 45/45/45 47/47/47
f 51/51/51 50/50/50 49/49/49
f 52/52/52 49/49/49 50/50/50
f 49/49/49 52/52/52 53/53/53
f 54/54/54 53/53/53 52/52/52
f 53/53/53 54/54/54 55/55/55
f 56/56/56 55/55/55 54/54/54
f 55/55/55 56/56/56 57/57/57
f 58/58/58 57/57/57 56/56/56
f 57/57/57 58/58/58 59/59/59
f 60/60/60 59/59/59 58/58/58
f 59/59/59 60/60/60 61/61/61
f 62/62/62 61/61/61 60/60/60
f 62/62/62 63/63/63 61/61/61
f 64/64/64 61/61/61 63/63/63
f 63/63/63 65/65/65 64/64/64
f 66/66/66 64/64/64 65/65/65
f 65/65/65 67/67/67 66/66/66
f 68/68/68 66/66/66 67/67/67
f 67/67/67 69/69/69 68/68/68
f 70/70/70 68/68/68 69/69/69
f 69/69/69 71/71/71 70/70/70
f 72/72/72 70/70/70 71/71/71
f 75/75/75 74/74/74 73/73/73
f 76/76/76 73/73/73 74/74/74
f 73/73/73 76/76/76 77/77/77
f 74/74/74 78/78/78 76/76/76
f 79/79/79 77/77/77 76/76/76
f 80/80/80 76/76/76 78/78/78
f 76/76/76 80/80/80 79/79/79
f 78/78/78 81/81/81 80/80/80
f 82/82/82 79/79/79 80/80/80
f 83/83/83 80/80/80 81/81/81
f 80/80/80 83/83/83 82/82/82
f 81/81/81 84/84/84 83/83/83
f 85/85/85 82/82/82 83/83/83
f 86/86/86 83/83/83 84/84/84
f 83/83/83 86/86/86 85/85/85
f 84/84/84 87/87/87 86/86/86
f 88/88/88 85/85/85 86/86/86
f 89/89/89 86/86/86 87/87/87
f 86/86/86 89/89/89 88/88/88
f 87/87/87 90/90/90 89/89/89
f 91/91/91 88/88/88 89/89/89
f 92/92/92 89/89/89 90/90/90
f 89/89/89 92/92/92 91/91/91
f 90/90/90 93/93/93 92/92/92
f 94/94/94 91/91/91 92/92/92
f 95/95/95 92/92/92 93/93/93
f 92/92/92 95/95/95 94/94/94
f 93/93/93 96/96/96 95/95/95
f 97/97/97 94/94/94 95/95/95
f 98/98/98 95/95/95 96/96/96
f 95/95/95 98/98/98 97/97/97
f 96/96/96 99/99/99 98/98/98
f 100/100/100 97/97/97 98/98/98
f 101/101/101 98/98/98 99/99/99
f 98/98/98 101/101/101 100/100/100
f 99/99/99 102/102/102 101/101/101
f 103/103/103 100/100/100 101/101/101
f 105/105/105 104/104/104 102/102/102
f 101/101/101 106/106/106 103/103/103
f 106/106/106 101/101/101 102/102/102
f 106/106/106 102/102/102 104/104/104
f 107/107/107 103/103/103 106/106/106
f 104/104/104 108/108/108 106/106/106
f 107/107/107 106/106/106 108/108/108
f 111/111/111 110/110/110 109/109/109
f 109/109/109 110/110/110 112/112/112
f 113/113/113 110/110/110 111/111/111
f 112/112/112 110/110/110 114/114/114
f 114/114/114 110/110/110 113/113/113
f 117/117/117 116/116/116 115/115/115
f 117/117/117 115/115/115 118/118/118
f 117/117/117 119/119/119 116/116/116
f 117/117/117 118/118/118 120/120/120
f 117/117/117 120/120/120 119/119/119
