mtllib SM_Building05_Roof.mtl
g SM_Building05_Roof
#Vertices 72
#Indices 108
#Section 0 Offset 0 NumIndices 108 MaterialIndex 0 M_Building05_TopFloor_B
v 6.000352 0.107221 0.246024
v 0.000489 0.107221 -0.000003
v 6.000615 0.107221 -0.000002
v 0.000488 0.107221 0.246024
v 6.000350 -0.000000 0.246024
v 0.000487 -0.000001 -0.000003
v 0.000486 -0.000001 0.246024
v 6.000612 -0.000001 -0.000002
v 0.000489 0.107221 -0.000003
v 6.000612 -0.000001 -0.000002
v 6.000615 0.107221 -0.000002
v 0.000487 -0.000001 -0.000003
v 0.000488 0.107221 0.246024
v 6.000350 -0.000000 0.246024
v 0.000486 -0.000001 0.246024
v 6.000352 0.107221 0.246024
v 6.000350 -0.000000 0.246024
v 6.000615 0.107221 -0.000002
v 6.000612 -0.000001 -0.000002
v 6.000352 0.107221 0.246024
v 0.000489 0.107221 -0.000003
v 0.000488 0.107221 0.246024
v 0.000486 -0.000001 0.246024
v 0.000487 -0.000001 -0.000003
v 6.000483 -6.000002 4.999983
v 0.000480 -0.000002 -0.000008
v 6.000489 -0.000002 -0.000008
v 0.000482 -6.000002 4.999983
v 0.076455 -0.000000 0.246022
v 0.076490 -5.900000 4.916635
v 0.076427 -5.899992 5.174184
v 0.076455 -0.000002 0.000000
v 0.000560 -5.899992 5.174184
v 0.076455 -0.000000 0.246022
v 0.076427 -5.899992 5.174184
v 0.000488 -0.000000 0.246022
v 0.000488 -0.000000 0.246022
v 0.000441 -5.900007 4.916639
v 0.000487 -0.000000 -0.000002
v 0.000560 -5.899992 5.174184
v 5.924382 -0.000001 0.246022
v 5.924347 -5.900001 4.916635
v 5.924382 -0.000003 0.000000
v 5.924410 -5.899994 5.174184
v 5.924410 -5.899994 5.174184
v 5.924382 -0.000001 0.246022
v 6.000277 -5.899994 5.174184
v 6.000349 -0.000002 0.246022
v 6.000397 -5.900008 4.916639
v 6.000349 -0.000002 0.246022
v 6.000350 -0.000002 -0.000002
v 6.000277 -5.899994 5.174184
v 0.000482 -5.899999 5.174195
v 6.000456 -5.999999 5.174201
v 0.000480 -5.999994 5.174194
v 6.000458 -5.900001 5.174201
v 0.000482 -5.899999 5.174195
v 6.000394 -5.900006 4.916644
v 6.000458 -5.900001 5.174201
v 0.000420 -5.900005 4.916643
v 6.000456 -5.999999 5.174201
v 0.000481 -5.999994 4.999996
v 0.000480 -5.999994 5.174194
v 6.000456 -5.999999 5.000001
v 0.000482 -5.899999 5.174195
v 0.000481 -5.999994 4.999996
v 0.000420 -5.900005 4.916643
v 0.000480 -5.999994 5.174194
v 6.000458 -5.900001 5.174201
v 6.000456 -5.999999 5.000001
v 6.000456 -5.999999 5.174201
v 6.000394 -5.900006 4.916644
vt 0.953613 0.717773
vt 0.461670 0.697754
vt 0.953613 0.697754
vt 0.461670 0.717773
vt 0.952148 0.636475
vt 0.459961 0.657715
vt 0.459961 0.636475
vt 0.952148 0.657715
vt 0.461182 0.694824
vt 0.953125 0.686035
vt 0.953125 0.694824
vt 0.461182 0.686035
vt 0.952637 0.745117
vt 0.460693 0.736328
vt 0.952637 0.736328
vt 0.460693 0.745117
vt 0.812988 0.244629
vt 0.833008 0.235840
vt 0.833008 0.244629
vt 0.812988 0.235840
vt 0.898438 0.330078
vt 0.898438 0.350586
vt 0.889648 0.350586
vt 0.889648 0.330078
vt 0.457520 0.744629
vt 0.004719 0.155273
vt 0.457520 0.155273
vt 0.004719 0.744629
vt 0.619141 0.040527
vt 0.017044 0.055664
vt 0.003792 0.040527
vt 0.631836 0.055664
vt 0.617188 0.075195
vt 0.003523 0.066895
vt 0.617188 0.066895
vt 0.003523 0.075195
vt 0.016449 0.022461
vt 0.618652 0.037598
vt 0.003792 0.037598
vt 0.631836 0.022461
vt 0.015228 0.003906
vt 0.617676 0.019043
vt 0.002563 0.019043
vt 0.630859 0.003906
vt 0.003792 0.057617
vt 0.617676 0.057617
vt 0.003792 0.065430
vt 0.617676 0.065430
vt 0.016571 0.091797
vt 0.618652 0.076660
vt 0.631348 0.091797
vt 0.003315 0.076660
vt 0.461182 0.686035
vt 0.953125 0.694824
vt 0.461182 0.694824
vt 0.953125 0.686035
vt 0.461670 0.682129
vt 0.953613 0.660889
vt 0.953613 0.682129
vt 0.461670 0.660889
vt 0.952637 0.719238
vt 0.460449 0.733643
vt 0.460449 0.719238
vt 0.952637 0.733643
vt 0.721680 0.134277
vt 0.736328 0.126465
vt 0.743164 0.134277
vt 0.721680 0.126465
vt 0.697754 0.243652
vt 0.711914 0.251953
vt 0.697754 0.251953
vt 0.718750 0.243652
vt1 0.775879 0.061981
vt1 0.037903 0.092224
vt1 0.775879 0.092224
vt1 0.037903 0.061981
vt1 0.775879 0.158081
vt1 0.037903 0.126343
vt1 0.037903 0.158081
vt1 0.775879 0.126343
vt1 0.037903 0.102539
vt1 0.775879 0.115723
vt1 0.775879 0.102539
vt1 0.037903 0.115723
vt1 0.948730 0.849121
vt1 0.935547 0.110962
vt1 0.935547 0.849121
vt1 0.948730 0.110962
vt1 0.901855 0.127808
vt1 0.888672 0.158081
vt1 0.901855 0.158081
vt1 0.888672 0.127808
vt1 0.925293 0.158081
vt1 0.925293 0.127808
vt1 0.912109 0.127808
vt1 0.912109 0.158081
vt1 0.037903 0.169800
vt1 0.921875 0.849121
vt1 0.921875 0.169800
vt1 0.037903 0.849121
vt1 0.056885 0.905762
vt1 0.960449 0.928711
vt1 0.980469 0.905762
vt1 0.037903 0.928711
vt1 0.958496 0.860840
vt1 0.037903 0.872559
vt1 0.958496 0.872559
vt1 0.037903 0.860840
vt1 0.056885 0.961914
vt1 0.960449 0.938477
vt1 0.037903 0.938477
vt1 0.980469 0.961914
vt1 0.056885 0.994629
vt1 0.960449 0.971680
vt1 0.037903 0.971680
vt1 0.980469 0.994629
vt1 0.037903 0.895996
vt1 0.958496 0.895996
vt1 0.037903 0.884277
vt1 0.958496 0.884277
vt1 0.028168 0.067383
vt1 0.004997 0.971191
vt1 0.028168 0.990234
vt1 0.004997 0.047546
vt1 0.019104 0.049927
vt1 0.757324 0.036743
vt1 0.019104 0.036743
vt1 0.757324 0.049927
vt1 0.958984 0.849121
vt1 0.990723 0.110962
vt1 0.958984 0.110962
vt1 0.990723 0.849121
vt1 0.747559 0.026428
vt1 0.009697 0.004997
vt1 0.009697 0.026428
vt1 0.747559 0.004997
vt1 0.785156 0.158081
vt1 0.797363 0.136597
vt1 0.785156 0.126343
vt1 0.797363 0.158081
vt1 0.980957 0.895996
vt1 0.968750 0.874512
vt1 0.968750 0.895996
vt1 0.980957 0.864258
vn 0.000000 1.000000 0.000000
vn 0.000000 1.000000 0.000000
vn 0.000000 1.000000 0.000000
vn 0.000000 1.000000 0.000000
vn 0.000000 -1.000000 0.000000
vn 0.000000 -1.000000 0.000000
vn 0.000000 -1.000000 0.000000
vn 0.000000 -1.000000 0.000000
vn 0.000000 0.000000 -1.000000
vn 0.000000 0.000000 -1.000000
vn 0.000000 0.000000 -1.000000
vn 0.000000 0.000000 -1.000000
vn 0.000000 0.000000 1.000000
vn 0.000000 0.000000 1.000000
vn 0.000000 0.000000 1.000000
vn 0.000000 0.000000 1.000000
vn 1.000000 0.000000 0.000000
vn 1.000000 0.000000 0.000000
vn 1.000000 0.000000 0.000000
vn 1.000000 0.000000 0.000000
vn -1.000000 0.000000 0.000000
vn -1.000000 0.000000 0.000000
vn -1.000000 0.000000 0.000000
vn -1.000000 0.000000 0.000000
vn 0.000000 0.637795 0.771654
vn 0.000000 0.637795 0.771654
vn 0.000000 0.637795 0.771654
vn 0.000000 0.637795 0.771654
vn 1.000000 0.000000 0.000000
vn 1.000000 0.000000 0.000000
vn 1.000000 0.000000 0.000000
vn 1.000000 0.000000 0.000000
vn 0.000000 0.637795 0.763780
vn 0.000000 0.637795 0.763780
vn 0.000000 0.637795 0.763780
vn 0.000000 0.637795 0.763780
vn -1.000000 0.000000 0.000000
vn -1.000000 0.000000 0.000000
vn -1.000000 0.000000 0.000000
vn -1.000000 0.000000 0.000000
vn -1.000000 0.000000 0.000000
vn -1.000000 0.000000 0.000000
vn -1.000000 0.000000 0.000000
vn -1.000000 0.000000 0.000000
vn 0.000000 0.637795 0.763780
vn 0.000000 0.637795 0.763780
vn 0.000000 0.637795 0.763780
vn 0.000000 0.637795 0.763780
vn 1.000000 0.000000 0.000000
vn 1.000000 0.000000 0.000000
vn 1.000000 0.000000 0.000000
vn 1.000000 0.000000 0.000000
vn 0.000000 0.000000 1.000000
vn 0.000000 0.000000 1.000000
vn 0.000000 0.000000 1.000000
vn 0.000000 0.000000 1.000000
vn 0.000000 1.000000 0.000000
vn 0.000000 1.000000 0.000000
vn 0.000000 1.000000 0.000000
vn 0.000000 1.000000 0.000000
vn 0.000000 -1.000000 0.000000
vn 0.000000 -1.000000 0.000000
vn 0.000000 -1.000000 0.000000
vn 0.000000 -1.000000 0.000000
vn -1.000000 0.000000 0.000000
vn -1.000000 0.000000 0.000000
vn -1.000000 0.000000 0.000000
vn -1.000000 0.000000 0.000000
vn 1.000000 0.000000 0.000000
vn 1.000000 0.000000 0.000000
vn 1.000000 0.000000 0.000000
vn 1.000000 0.000000 0.000000
tan 1.000000 0.000000 0.000000 1.000000
tan 1.000000 0.000000 0.000000 1.000000
tan 1.000000 0.000000 0.000000 1.000000
tan 1.000000 0.000000 0.000000 1.000000
tan 1.000000 0.000000 0.000000 1.000000
tan 1.000000 0.000000 0.000000 1.000000
tan 1.000000 0.000000 0.000000 1.000000
tan 1.000000 0.000000 0.000000 1.000000
tan 1.000000 0.000000 0.000000 1.000000
tan 1.000000 0.000000 0.000000 1.000000
tan 1.000000 0.000000 0.000000 1.000000
tan 1.000000 0.000000 0.000000 1.000000
tan -1.000000 0.000000 0.000000 1.000000
tan -1.000000 0.000000 0.000000 1.000000
tan -1.000000 0.000000 0.000000 1.000000
tan -1.000000 0.000000 0.000000 1.000000
tan 0.000000 0.000000 -1.000000 1.000000
tan 0.000000 0.000000 -1.000000 1.000000
tan 0.000000 0.000000 -1.000000 1.000000
tan 0.000000 0.000000 -1.000000 1.000000
tan 0.000000 1.000000 0.000000 1.000000
tan 0.000000 1.000000 0.000000 1.000000
tan 0.000000 1.000000 0.000000 1.000000
tan 0.000000 1.000000 0.000000 1.000000
tan 1.000000 0.000000 0.000000 1.000000
tan 1.000000 0.000000 0.000000 1.000000
tan 1.000000 0.000000 0.000000 1.000000
tan 1.000000 0.000000 0.000000 1.000000
tan 0.000000 0.771654 -0.637795 1.000000
tan 0.000000 0.763780 -0.637795 1.000000
tan 0.000000 0.763780 -0.637795 1.000000
tan 0.000000 0.771654 -0.637795 1.000000
tan 0.000000 -0.763780 0.637795 1.000000
tan 0.000000 -0.763780 0.637795 1.000000
tan 0.000000 -0.763780 0.637795 1.000000
tan 0.000000 -0.763780 0.637795 1.000000
tan 0.000000 -0.771654 0.637795 1.000000
tan 0.000000 -0.763780 0.637795 1.000000
tan 0.000000 -0.771654 0.637795 1.000000
tan 0.000000 -0.763780 0.637795 1.000000
tan 0.000000 -0.771654 0.637795 1.000000
tan 0.000000 -0.763780 0.637795 1.000000
tan 0.000000 -0.771654 0.637795 1.000000
tan 0.000000 -0.763780 0.637795 1.000000
tan 0.000000 0.763780 -0.637795 1.000000
tan 0.000000 0.763780 -0.637795 1.000000
tan 0.000000 0.763780 -0.637795 1.000000
tan 0.000000 0.763780 -0.637795 1.000000
tan 0.000000 0.763780 -0.637795 1.000000
tan 0.000000 0.771654 -0.637795 1.000000
tan 0.000000 0.771654 -0.637795 1.000000
tan 0.000000 0.763780 -0.637795 1.000000
tan 1.000000 0.000000 0.000000 1.000000
tan 1.000000 0.000000 0.000000 1.000000
tan 1.000000 0.000000 0.000000 1.000000
tan 1.000000 0.000000 0.000000 1.000000
tan 1.000000 0.000000 0.000000 1.000000
tan 1.000000 0.000000 0.000000 1.000000
tan 1.000000 0.000000 0.000000 1.000000
tan 1.000000 0.000000 0.000000 1.000000
tan 1.000000 0.000000 0.000000 1.000000
tan 1.000000 0.000000 0.000000 1.000000
tan 1.000000 0.000000 0.000000 1.000000
tan 1.000000 0.000000 0.000000 1.000000
tan 0.000000 0.000000 -1.000000 1.000000
tan 0.000000 0.000000 -1.000000 1.000000
tan 0.000000 0.000000 -1.000000 1.000000
tan 0.000000 0.000000 -1.000000 1.000000
tan 0.000000 0.000000 -1.000000 1.000000
tan 0.000000 0.000000 -1.000000 1.000000
tan 0.000000 0.000000 -1.000000 1.000000
tan 0.000000 0.000000 -1.000000 1.000000
f 3/3/3 2/2/2 1/1/1
f 4/4/4 1/1/1 2/2/2
f 7/7/7 6/6/6 5/5/5
f 8/8/8 5/5/5 6/6/6
f 11/11/11 10/10/10 9/9/9
f 12/12/12 9/9/9 10/10/10
f 15/15/15 14/14/14 13/13/13
f 16/16/16 13/13/13 14/14/14
f 19/19/19 18/18/18 17/17/17
f 20/20/20 17/17/17 18/18/18
f 23/23/23 22/22/22 21/21/21
f 21/21/21 24/24/24 23/23/23
f 27/27/27 26/26/26 25/25/25
f 28/28/28 25/25/25 26/26/26
f 31/31/31 30/30/30 29/29/29
f 32/32/32 29/29/29 30/30/30
f 35/35/35 34/34/34 33/33/33
f 36/36/36 33/33/33 34/34/34
f 39/39/39 38/38/38 37/37/37
f 40/40/40 37/37/37 38/38/38
f 43/43/43 42/42/42 41/41/41
f 44/44/44 41/41/41 42/42/42
f 47/47/47 46/46/46 45/45/45
f 48/48/48 46/46/46 47/47/47
f 51/51/51 50/50/50 49/49/49
f 52/52/52 49/49/49 50/50/50
f 55/55/55 54/54/54 53/53/53
f 56/56/56 53/53/53 54/54/54
f 59/59/59 58/58/58 57/57/57
f 60/60/60 57/57/57 58/58/58
f 63/63/63 62/62/62 61/61/61
f 64/64/64 61/61/61 62/62/62
f 67/67/67 66/66/66 65/65/65
f 66/66/66 68/68/68 65/65/65
f 71/71/71 70/70/70 69/69/69
f 70/70/70 72/72/72 69/69/69
