mtllib SM_Building04_RoofTop_B.mtl
g SM_Building04_RoofTop_B
#Vertices 4
#Indices 6
#Section 0 Offset 0 NumIndices 6 MaterialIndex 0 M_Building04_RoofTop
v 4.000032 -5.999998 0.000001
v 0.000001 -5.999999 0.000001
v 4.000031 0.000002 0.000002
v -0.000000 0.000001 0.000002
vt 0.004833 0.996674
vt 0.319092 0.996674
vt 0.004833 0.525146
vt 0.319092 0.525146
vt1 0.004997 0.004997
vt1 0.664551 0.004997
vt1 0.004997 0.994629
vt1 0.664551 0.994629
vn 0.000000 0.000000 1.000000
vn 0.000000 0.000000 1.000000
vn 0.000000 0.000000 1.000000
vn 0.000000 0.000000 1.000000
tan -1.000000 0.000000 0.000000 1.000000
tan -1.000000 0.000000 0.000000 1.000000
tan -1.000000 0.000000 0.000000 1.000000
tan -1.000000 0.000000 0.000000 1.000000
f 3/3/3 2/2/2 1/1/1
f 3/3/3 4/4/4 2/2/2
