mtllib SM_Building05_Facade_D.mtl
g SM_Building05_Facade_D
#Vertices 3
#Indices 3
#Section 0 Offset 0 NumIndices 3 MaterialIndex 0 M_Building05_TowerBase
v 0.000001 0.000002 -0.000000
v 5.999982 0.000003 0.000001
v -0.000038 -0.000000 4.999999
vt 0.991699 0.582275
vt 0.511719 0.582275
vt 0.991699 0.981964
vt1 0.004997 0.994629
vt1 0.004997 0.004997
vt1 0.829590 0.994629
vn 0.000000 1.000000 0.000000
vn 0.000000 1.000000 0.000000
vn 0.000000 1.000000 0.000000
tan -1.000000 0.000000 0.000000 1.000000
tan -1.000000 0.000000 0.000000 1.000000
tan -1.000000 0.000000 0.000000 1.000000
f 3/3/3 2/2/2 1/1/1
