mtllib SM_Building04_Facade_F.mtl
g SM_Building04_Facade_F
#Vertices 4
#Indices 6
#Section 0 Offset 0 NumIndices 6 MaterialIndex 0 M_Building04_Facade_E
v -0.000001 0.000001 3.000000
v -0.000001 0.000000 -0.000000
v 4.000031 0.000001 3.000000
v 4.000031 0.000000 -0.000000
vt 0.362305 0.995384
vt 0.362305 0.726074
vt 0.003092 0.995384
vt 0.003092 0.726074
vt1 0.994629 0.252441
vt1 0.994629 0.994629
vt1 0.004997 0.252441
vt1 0.004997 0.994629
vn 0.000000 1.000000 0.000000
vn 0.000000 1.000000 0.000000
vn 0.000000 1.000000 0.000000
vn 0.000000 1.000000 0.000000
tan -1.000000 0.000000 0.000000 1.000000
tan -1.000000 0.000000 0.000000 1.000000
tan -1.000000 0.000000 0.000000 1.000000
tan -1.000000 0.000000 0.000000 1.000000
f 3/3/3 2/2/2 1/1/1
f 4/4/4 2/2/2 3/3/3
